<?xml version="1.0" encoding="utf-8"?>
<!-- Generator: Adobe Illustrator 22.1.0, SVG Export Plug-In . SVG Version: 6.00 Build 0)  -->
<svg version="1.1" id="Слой_1" xmlns="http://www.w3.org/2000/svg" xmlns:xlink="http://www.w3.org/1999/xlink" x="0px" y="0px"
	 viewBox="0 0 130.2897 18.6924" style="enable-background:new 0 0 130.2897 18.6924;" xml:space="preserve">
<style type="text/css">
	.st0{fill:#FFFFFF;}
	.st1{fill:#231F20;}
</style>
<polygon class="st0" points="123.2428,6.2775 123.2428,5.4959 122.6609,6.0024 122.0794,5.4959 122.0794,6.2775 121.8866,6.2775 
	121.8866,5.2146 122.0487,5.2146 122.6609,5.7488 123.2729,5.2146 123.4354,5.2146 123.4354,6.2775 "/>
<polygon class="st0" points="120.9699,6.2775 120.9699,5.3928 120.4658,5.3928 120.4658,5.2146 121.6466,5.2146 121.6466,5.3928 
	121.1626,5.3928 121.1626,6.2775 "/>
<path class="st0" d="M91.4053,6.2806"/>
<g>
	<path class="st1" d="M92.0241,7.1902c-0.3773-0.1205-0.8268-0.1651-1.6567-0.1651h-3.839v4.7316h3.839
		c1.3405,0,1.8749-0.1263,2.2871-0.5396c0.4103-0.4194,0.627-1.0444,0.627-1.8087C93.2814,8.2772,92.7998,7.4271,92.0241,7.1902z"/>
	<polygon class="st1" points="52.4542,10.2275 55.2482,10.2275 53.8788,8.1061 	"/>
	<polygon class="st1" points="12.6059,10.2275 15.451,10.2275 14.0273,8.1058 	"/>
	<path class="st1" d="M0,0v18.6924h130.2897V0H0z M16.9741,12.4977l-0.758-1.1328h-4.3746l-0.7601,1.1328H9.2136l4.512-6.2141
		h0.6029l4.5127,6.2141H16.9741z M29.2423,12.4977L27.3774,9.957h-2.4782l-0.8298-1.1429h3.9585
		c0.7336,0,1.0489-0.2181,1.0489-0.7171c0-0.4543-0.2889-0.6817-0.8832-0.6817H23.054l-0.821-1.1306V6.2836h5.9963
		c0.7459,0,1.1194,0.0569,1.4928,0.2343c0.1953,0.0934,0.3822,0.2328,0.5316,0.4102c0.2797,0.3264,0.4196,0.7278,0.4196,1.2223
		c0,1.0084-0.551,1.5949-1.6886,1.7732l1.8755,2.5742H29.2423z M44.2773,12.4977h-7.8259V6.2836h7.6582v1.1207h-6.0251v1.4118
		h5.3994v1.1288h-5.3994v1.424h6.1929V12.4977z M56.774,12.4977l-0.7607-1.1328h-4.3749l-0.7571,1.1328h-1.8683l4.5134-6.2141
		h0.6031l4.5114,6.2141H56.774z M71.3985,12.4977h-7.5137V6.2836h1.6323v5.0854h5.8814V12.4977z M78.7017,12.4977h-0.829V6.2836
		h0.829V12.4977z M92.4619,12.2862c-0.4423,0.1504-0.9633,0.2115-1.799,0.2115h-4.973V6.2836h4.973
		c1.343,0,2.0866,0.2136,2.6511,0.7609c0.569,0.5607,0.8953,1.4129,0.8953,2.3375C94.2093,10.7634,93.4908,11.9576,92.4619,12.2862z
		 M107.5408,12.4977h-7.5143V6.2836h7.2372v0.7413h-6.3984v1.8878h5.9952v0.7498h-5.9952v2.085h6.6756V12.4977z M120.0633,12.4977
		l-1.136-1.5612h-4.9334l-1.136,1.5612h-1.0065l4.5182-6.2141h0.182l4.5179,6.2141H120.0633z M121.6465,5.3928h-0.484v0.8847H120.97
		V5.3928h-0.5042V5.2145h1.1807V5.3928z M123.4354,6.2775h-0.1926V5.4959l-0.5818,0.5065l-0.5815-0.5065v0.7816h-0.1929V5.2145
		h0.1622l0.6122,0.5342l0.6119-0.5342h0.1625V6.2775z"/>
	<polygon class="st1" points="114.5144,10.2227 118.4067,10.2227 116.4606,7.4902 	"/>
</g>
</svg>
