<?xml version="1.0" encoding="utf-8"?>
<!-- Generator: Adobe Illustrator 22.1.0, SVG Export Plug-In . SVG Version: 6.00 Build 0)  -->
<svg version="1.1" id="Layer_1" xmlns="http://www.w3.org/2000/svg" xmlns:xlink="http://www.w3.org/1999/xlink" x="0px" y="0px"
	 viewBox="0 0 14 18" style="enable-background:new 0 0 14 18;" xml:space="preserve">
<style type="text/css">
	.st0{fill:#1D1D1B;}
</style>
<path class="st0" d="M13.7030907,4.8189087L9.3753109,0.3286133C9.1752167,0.1209717,8.8992233,0.0037231,8.6108351,0.0037231
	H1.1642119c-0.6430883,0-1.1643611,0.5210571-1.1643611,1.1638794v15.6647339c0,0.6428223,0.5212728,1.1639404,1.1643611,1.1639404
	h11.6715145c0.6430883,0,1.164423-0.5211182,1.164423-1.1639404V5.5551147
	C14.0001497,5.2805176,13.8936596,5.0166626,13.7030907,4.8189087z M9.2101431,1.6016846L12.429431,4.960144H9.2101431V1.6016846z
	 M12.8357267,16.9962769H1.1642119c-0.0903695,0-0.1639472-0.0735474-0.1639472-0.1639404V1.1676025
	c0-0.090332,0.0735778-0.1638794,0.1639472-0.1638794h7.0455174V5.960144h4.7900066v10.8721924
	C12.9997358,16.9227295,12.926158,16.9962769,12.8357267,16.9962769z"/>
</svg>
