<?xml version="1.0" encoding="utf-8"?>
<!-- Generator: Adobe Illustrator 22.1.0, SVG Export Plug-In . SVG Version: 6.00 Build 0)  -->
<svg version="1.1" id="Capa_1" xmlns="http://www.w3.org/2000/svg" xmlns:xlink="http://www.w3.org/1999/xlink" x="0px" y="0px"
	 viewBox="0 0 385 192.5" style="enable-background:new 0 0 385 192.5;" xml:space="preserve">
<g>
	<g id="Menu_1_">
		<path d="M12,24.1h360.9c6.6,0,12-5.4,12-12c0-6.6-5.4-12-12-12H12C5.4,0,0,5.4,0,12S5.4,24.1,12,24.1z"/>
		<path d="M372.9,84.2H12c-6.6,0-12,5.4-12,12s5.4,12,12,12h360.9c6.6,0,12-5.4,12-12S379.6,84.2,372.9,84.2z"/>
		<path d="M372.9,168.4H132.3c-6.6,0-12,5.4-12,12c0,6.6,5.4,12,12,12h240.6c6.6,0,12-5.4,12-12C385,173.8,379.6,168.4,372.9,168.4z
			"/>
	</g>
</g>
</svg>
