<?xml version="1.0" encoding="utf-8"?>
<!-- Generator: Adobe Illustrator 22.1.0, SVG Export Plug-In . SVG Version: 6.00 Build 0)  -->
<svg version="1.1" id="Capa_1" xmlns="http://www.w3.org/2000/svg" xmlns:xlink="http://www.w3.org/1999/xlink" x="0px" y="0px"
	 viewBox="0 0 38.4 53.6" style="enable-background:new 0 0 38.4 53.6;" xml:space="preserve">
<g>
	<path d="M19.4,12c-3.9,0-7,3.1-7,7s3.1,7,7,7s7-3.1,7-7S23.2,12,19.4,12z M19.4,24c-2.8,0-5-2.2-5-5s2.2-5,5-5s5,2.2,5,5
		S22.1,24,19.4,24z"/>
	<path d="M32.7,5.6C29.1,2,24.3,0,19.2,0C14.1,0,9.2,2,5.6,5.6c-6.7,6.7-7.5,19.3-1.8,27l14.1,20.3c0.6,0.9,1.9,0.9,2.6,0l14.1-20.3
		C40.3,24.9,39.4,12.3,32.7,5.6z M32.9,31.4l-13.2,19c-0.3,0.4-0.8,0.4-1.1,0l-13.2-19C0.2,24.5,1,13.1,7,7c3.2-3.2,7.6-5,12.1-5
		s8.9,1.8,12.1,5C37.4,13.1,38.1,24.5,32.9,31.4z"/>
</g>
</svg>
