<?xml version="1.0" encoding="utf-8"?>
<!-- Generator: Adobe Illustrator 22.1.0, SVG Export Plug-In . SVG Version: 6.00 Build 0)  -->
<svg version="1.1" id="Слой_1" xmlns="http://www.w3.org/2000/svg" xmlns:xlink="http://www.w3.org/1999/xlink" x="0px" y="0px"
	 viewBox="0 0 37 42.7960014" style="enable-background:new 0 0 37 42.7960014;" xml:space="preserve">
<style type="text/css">
	.st0{fill:#1D1D1B;}
</style>
<path class="st0" d="M3.5272975,42.7959061c-0.4547386,0-0.9134102-0.0879974-1.3519258-0.2698936
	C0.8539256,41.9788513,0,40.7006683,0,39.2705765V3.5261471c0-1.4305835,0.8539256-2.7082763,2.1753716-3.2559292
	C3.4299591-0.2499049,4.8536596-0.005575,5.860476,0.8881709L35.836853,18.7739048l0.1327324,0.1327343
	c1.373558,1.3735561,1.3740501,3.6089058,0.0004921,4.9834442l-0.2944717,0.2290916L5.860476,41.908062
	C5.2056522,42.4891434,4.3743405,42.7959061,3.5272975,42.7959061z M3.5361466,3.0183146
	c-0.0820987,0-0.1538739,0.0216308-0.2050011,0.0427699c-0.11602,0.0476861-0.3106973,0.172555-0.3106973,0.4650626v35.7444305
	c0,0.2925072,0.1946774,0.4168854,0.3106973,0.4650612c0.1160197,0.0476875,0.3416684,0.0973396,0.548636-0.1091347
	l0.2939827-0.2290916l29.7374535-17.7426758c0.0929146-0.1573143,0.0929146-0.3554325,0-0.5127487L4.012516,3.3024647
	L3.8797815,3.1697302C3.7632701,3.0537105,3.641351,3.0183146,3.5361466,3.0183146z"/>
</svg>
