<?xml version="1.0" encoding="utf-8"?>
<!-- Generator: Adobe Illustrator 22.1.0, SVG Export Plug-In . SVG Version: 6.00 Build 0)  -->
<svg version="1.1" id="Слой_1" xmlns="http://www.w3.org/2000/svg" xmlns:xlink="http://www.w3.org/1999/xlink" x="0px" y="0px"
	 viewBox="0 0 101.0665512 102.9300003" style="enable-background:new 0 0 101.0665512 102.9300003;" xml:space="preserve">
<title>logo</title>
<path d="M47.8399963,38.6300011l0.6399994,0.3700027l0,0c1-0.9499969,2-1.9000015,3-2.7900009l0,0l0,0
	c4.5989838-4.4487,10.5343704-7.2600098,16.8899994-8c3.7043228-1.9884796,7.9514465-2.7284851,12.1100006-2.1100006
	c3.7924652,0.7291412,7.4023209,2.2043533,10.6200027,4.3399963c2.8963699,2.1070328,5.3638687,4.7476273,7.2699966,7.7799988
	c-0.2661285-2.651001-0.8022461-5.2679062-1.6000061-7.8099976c-0.8665314-2.7100601-2.0302887-5.3159103-3.4700012-7.7699966
	c-1.9089508-2.7571106-4.1155701-5.2957306-6.5800018-7.5699997c-4.6849365-4.2634811-10.3378754-7.3216286-16.4700012-8.9099998
	c-7.5525208-1.9324684-15.5740967-0.3082657-21.7799835,4.409996c-4.443634,3.2965698-7.1625977,8.4221687-7.4000015,13.9500008
	c-0.1200027,5.8399963,2.3099976,10.4000015,6.7600021,14.1200027L47.8399963,38.6300011z M50.3199997,39.9399986
	l2.5100021-2.3300018h0.0500031c3.2395401-3.0476303,7.136673-5.3092728,11.3899994-6.6100006
	c-0.9260483,0.805809-1.764061,1.7075119-2.5,2.6900024c-0.4245148,0.5482101-0.8088455,1.1263809-1.1500015,1.7300034
	c-1.355484,2.2083359-2.1677246,4.706749-2.3700027,7.2900009v0.1500015l0,0
	c-2.7163696-0.7680588-5.370636-1.7408447-7.9400024-2.9100037L50.3199997,39.9399986z"/>
<path d="M60.3099976,42.7099953c0,0.25,0,0.5,0,0.7399979l0,0c1.3300018,0.3899994,2.6600037,0.7799988,3.9199982,1.1900024
	h0.0599976c6.6500015,2.1299973,11.7799988,5.7300034,15.2700043,10.5699997c3.630043,2.2154999,6.4386749,5.5542526,8,9.510006
	c1.2509766,3.6251526,1.7676849,7.4630737,1.5199966,11.2899933c-0.3601379,3.549469-1.402565,6.9959412-3.0699997,10.1500092
	c2.1407242-1.5402527,4.1177444-3.2961273,5.8999939-5.2400055c1.9117432-2.1047974,3.5883179-4.4117584,5-6.8799896
	c1.4342194-3.0365448,2.5275574-6.222641,3.2599945-9.5c1.3513031-6.1928291,1.172821-12.6216927-0.5200043-18.7299995
	c-2.1194916-7.5056686-7.5572662-13.628685-14.7600021-16.6200027c-5.0718002-2.2028275-10.867218-1.9970322-15.7699966,0.5599976
	c-5.1100006,2.8099976-7.8600006,7.2099991-8.8399963,12.9300003L60.3099976,42.7099953z M60.3999939,45.5199928
	c1.0899963,0.3199997,2.1800003,0.6500015,3.2799988,1h0.0599976c4.2342072,1.2889786,8.1191483,3.5255585,11.3600006,6.5400009
	c-1.2329712-0.4235229-2.5119629-0.6987915-3.8099976-0.8199997c-0.1900024,0-0.3600006,0-0.5500031-0.0599976
	c-0.4199982,0-0.8300018,0-1.2399979,0c-2.6490631-0.0843506-5.2766495,0.5003204-7.6399994,1.6999969
	c-0.6942291-2.7468719-1.1855545-5.541069-1.4699936-8.359993L60.3999939,45.5199928z"/>
<path d="M63,55.529995l-0.6500015,0.3799973v0.0599976c0.3199997,1.3300018,0.6500015,2.6699982,0.9300003,4l0,0v0.0500031
	c1.5249329,6.1341362,1.0196609,12.5973625-1.4400024,18.4200096l0,0c-0.1026306,4.2544098-1.5913773,8.359024-4.2399979,11.6900024
	c-2.5092468,2.9037781-5.5679016,5.2827454-9,7c-3.28685,1.4753723-6.8292999,2.2973022-10.4300003,2.4199982
	c5.0229111,2.2803345,10.483963,3.4339905,16,3.3800049c3.3422928-0.2640533,6.6436005-0.9082031,9.8399963-1.9199982
	c6.0523605-1.9188385,11.5447235-5.2863312,16-9.8099976c5.4269943-5.5949249,8.0044479-13.3604126,7-21.0899963
	c-0.8000031-5.480011-3.5599976-10.4600029-8.3700027-13.3800011c-5-3-10.1699982-3.1999969-15.6200027-1.1999969L63,55.529995z
	 M60.6200027,57.0099983c0.2699966,1.1100006,0.5299988,2.2099991,0.7799988,3.3600006l0,0
	c1.009964,4.2718315,1.033905,8.7175407,0.0699997,12.9999962c-0.2541962-1.2399597-0.6466522-2.4475098-1.1699982-3.5999908
	c-1.2710648-2.9615479-3.3504257-5.5052948-6-7.3400002l0,0l-0.1300049,0.0099945
	c2.0193024-1.9558792,4.1710739-3.7701874,6.4400024-5.4300003H60.6200027z"/>
<path d="M53.2399979,64.2899933l-0.6399994-0.3799934l0,0c-1,1.0000038-2,1.9100075-3,2.7899971l0,0l0,0
	c-4.5433884,4.3637848-10.3777695,7.1388855-16.6299973,7.9100037h-0.0599976
	c-3.7381134,2.0379181-8.0393143,2.7998352-12.25,2.1699982c-3.7653694-0.7257233-7.3484344-2.1943054-10.5400009-4.3200073
	c-2.943882-2.122345-5.4413338-4.8032837-7.3499985-7.8899994c0.5401955,5.5166779,2.2735786,10.8498993,5.0800018,15.6300049
	c1.9065857,2.7588654,4.1171188,5.2947693,6.5900002,7.5599976c4.6877899,4.2648926,10.3443184,7.3231354,16.4799995,8.9100037
	c7.5551987,1.9182434,15.5728149,0.2712402,21.7600021-4.4700012c4.3499985-3.4299927,7.2900009-8.3000031,7.3899994-13.9300079
	c0.1299973-5.8399963-2.3000031-10.4099884-6.7600021-14.1199951L53.2399979,64.2899933z M50.7799988,62.9500008
	c-0.8300018,0.8000031-1.6800003,1.579998-2.5199966,2.3599968l0,0c-3.1883774,2.9842987-7.0053406,5.2156982-11.1699982,6.5299988
	c3.3788757-3.0187531,5.4753952-7.2153778,5.8600006-11.7299995h-0.0699997V60.029995
	C45.5769577,60.8216896,48.2164764,61.7973137,50.7799988,62.9500008z"/>
<path d="M40.7900009,60.2199974c0-0.25,0-0.5,0-0.75h-0.0599976c-1.3199997-0.3899994-2.6399994-0.7799988-3.9100037-1.1800003l0,0
	h-0.0500031c-6.0932388-1.7801971-11.4444542-5.4892044-15.25-10.5699997c-3.6231384-2.2100143-6.4306068-5.5368576-8-9.4799957
	c-1.2416649-3.6238937-1.7581444-7.4566956-1.5200005-11.2799988c0.3764992-3.6240387,1.4566917-7.1397591,3.1800003-10.3499985
	c-2.1868515,1.5733566-4.2013664,3.3733444-6.0099983,5.3699951c-1.9207764,2.0974503-3.5981064,4.4054565-5,6.8799973
	c-1.4349861,3.0362244-2.5283508,6.2224197-3.2599983,9.5c-1.3553467,6.1924438-1.1768379,12.6222916,0.5200005,18.7299957
	c2.1244812,7.4987526,7.5505524,13.6205788,14.7399979,16.6300087c5.1599998,2,10.8499985,2.1299896,15.7700043-0.5800018
	C37.0699997,70.3199921,39.8000031,65.9299927,40.7900009,60.2199974z M40.6999969,57.4399986
	c-1.0999985-0.3199997-2.1900024-0.6500015-3.2900009-1l0,0c-4.2302094-1.2711487-8.1128998-3.4947205-11.3499985-6.5
	c1.2343445,0.4166336,2.5129166,0.6884613,3.8099976,0.8099976c3.2079544,0.3742447,6.4563446-0.1665726,9.3700027-1.5599976
	v-0.0899963l0,0C39.9239273,51.8418388,40.4118271,54.6288795,40.6999969,57.4399986z"/>
<path d="M38.0800018,47.3800011c0.2200012-0.1100006,0.4300003-0.2399979,0.6500015-0.3499985v-0.0699997
	c-0.3199997-1.3399963-0.6500015-2.6900024-0.9400024-4l0,0v-0.0599976
	c-1.4800034-6.8499985-0.9199982-13.1299973,1.5500031-18.5699997c0.1263046-4.2009201,1.6064835-8.2486115,4.2200012-11.5400009
	c2.5053864-2.9078407,5.5649185-5.2874756,9-7c3.3125305-1.4520721,6.8745499-2.2500496,10.4899902-2.3500061
	c-5.057663-2.3196564-10.5660934-3.4910088-16.1299973-3.4300003c-3.3453522,0.2595253-6.6501083,0.9003448-9.8499985,1.9099998
	c-6.0523605,1.9188385-11.5447197,5.2863426-16,9.8100014c-5.4295845,5.5933571-8.0074577,13.3601227-7,21.090004
	c0.6255112,5.4980164,3.7064819,10.4172745,8.3800011,13.3799973c4.9999962,3,10.170002,3.1999969,15.6000023,1.1900024
	L38.0800018,47.3800011z M40.4800034,45.8999977c-0.2699966-1.1100006-0.5400009-2.2099991-0.7799988-3.3499985v-0.0599976
	c-1.010498-4.3149643-1.010498-8.8050385,0-13.1200027c0.2470169,1.3208923,0.6533127,2.6069489,1.2099991,3.8300018
	c1.2770157,2.9525299,3.3555374,5.488327,6,7.3199997c-2.0093842,1.9506683-4.1584244,3.752121-6.4300079,5.3899994
	L40.4800034,45.8999977z"/>
<path d="M47.8399963,38.6300011l0.6399994,0.3700027l0,0c1-0.9499969,2-1.9000015,3-2.7900009l0,0l0,0
	c4.5989838-4.4487,10.5343704-7.2600098,16.8899994-8c3.7043228-1.9884796,7.9514465-2.7284851,12.1100006-2.1100006
	c3.7924652,0.7291412,7.4023209,2.2043533,10.6200027,4.3399963c2.8963699,2.1070328,5.3638687,4.7476273,7.2699966,7.7799988
	c-0.2661285-2.651001-0.8022461-5.2679062-1.6000061-7.8099976c-0.8665314-2.7100601-2.0302887-5.3159103-3.4700012-7.7699966
	c-1.9089508-2.7571106-4.1155701-5.2957306-6.5800018-7.5699997c-4.6849365-4.2634811-10.3378754-7.3216286-16.4700012-8.9099998
	c-7.5525208-1.9324684-15.5740967-0.3082657-21.7799835,4.409996c-4.443634,3.2965698-7.1625977,8.4221687-7.4000015,13.9500008
	c-0.1200027,5.8399963,2.3099976,10.4000015,6.7600021,14.1200027L47.8399963,38.6300011z M50.3199997,39.9399986
	l2.5100021-2.3300018h0.0500031c3.2395401-3.0476303,7.136673-5.3092728,11.3899994-6.6100006
	c-0.9260483,0.805809-1.764061,1.7075119-2.5,2.6900024c-0.4245148,0.5482101-0.8088455,1.1263809-1.1500015,1.7300034
	c-1.355484,2.2083359-2.1677246,4.706749-2.3700027,7.2900009v0.1500015l0,0
	c-2.7163696-0.7680588-5.370636-1.7408447-7.9400024-2.9100037L50.3199997,39.9399986z"/>
<path d="M60.3099976,42.7099953c0,0.25,0,0.5,0,0.7399979l0,0c1.3300018,0.3899994,2.6600037,0.7799988,3.9199982,1.1900024
	h0.0599976c6.6500015,2.1299973,11.7799988,5.7300034,15.2700043,10.5699997c3.630043,2.2154999,6.4386749,5.5542526,8,9.510006
	c1.2509766,3.6251526,1.7676849,7.4630737,1.5199966,11.2899933c-0.3601379,3.549469-1.402565,6.9959412-3.0699997,10.1500092
	c2.1407242-1.5402527,4.1177444-3.2961273,5.8999939-5.2400055c1.9117432-2.1047974,3.5883179-4.4117584,5-6.8799896
	c1.4342194-3.0365448,2.5275574-6.222641,3.2599945-9.5c1.3513031-6.1928291,1.172821-12.6216927-0.5200043-18.7299995
	c-2.1194916-7.5056686-7.5572662-13.628685-14.7600021-16.6200027c-5.0718002-2.2028275-10.867218-1.9970322-15.7699966,0.5599976
	c-5.1100006,2.8099976-7.8600006,7.2099991-8.8399963,12.9300003L60.3099976,42.7099953z M60.3999939,45.5199928
	c1.0899963,0.3199997,2.1800003,0.6500015,3.2799988,1h0.0599976c4.2342072,1.2889786,8.1191483,3.5255585,11.3600006,6.5400009
	c-1.2329712-0.4235229-2.5119629-0.6987915-3.8099976-0.8199997c-0.1900024,0-0.3600006,0-0.5500031-0.0599976
	c-0.4199982,0-0.8300018,0-1.2399979,0c-2.6490631-0.0843506-5.2766495,0.5003204-7.6399994,1.6999969
	c-0.6942291-2.7468719-1.1855545-5.541069-1.4699936-8.359993L60.3999939,45.5199928z"/>
<path d="M63,55.529995l-0.6500015,0.3799973v0.0599976c0.3199997,1.3300018,0.6500015,2.6699982,0.9300003,4l0,0v0.0500031
	c1.5249329,6.1341362,1.0196609,12.5973625-1.4400024,18.4200096l0,0c-0.1026306,4.2544098-1.5913773,8.359024-4.2399979,11.6900024
	c-2.5092468,2.9037781-5.5679016,5.2827454-9,7c-3.28685,1.4753723-6.8292999,2.2973022-10.4300003,2.4199982
	c5.0229111,2.2803345,10.483963,3.4339905,16,3.3800049c3.3422928-0.2640533,6.6436005-0.9082031,9.8399963-1.9199982
	c6.0523605-1.9188385,11.5447235-5.2863312,16-9.8099976c5.4269943-5.5949249,8.0044479-13.3604126,7-21.0899963
	c-0.8000031-5.480011-3.5599976-10.4600029-8.3700027-13.3800011c-5-3-10.1699982-3.1999969-15.6200027-1.1999969L63,55.529995z
	 M60.6200027,57.0099983c0.2699966,1.1100006,0.5299988,2.2099991,0.7799988,3.3600006l0,0
	c1.009964,4.2718315,1.033905,8.7175407,0.0699997,12.9999962c-0.2541962-1.2399597-0.6466522-2.4475098-1.1699982-3.5999908
	c-1.2710648-2.9615479-3.3504257-5.5052948-6-7.3400002l0,0l-0.1300049,0.0099945
	c2.0193024-1.9558792,4.1710739-3.7701874,6.4400024-5.4300003H60.6200027z"/>
<path d="M53.2399979,64.2899933l-0.6399994-0.3799934l0,0c-1,1.0000038-2,1.9100075-3,2.7899971l0,0l0,0
	c-4.5433884,4.3637848-10.3777695,7.1388855-16.6299973,7.9100037h-0.0599976
	c-3.7381134,2.0379181-8.0393143,2.7998352-12.25,2.1699982c-3.7653694-0.7257233-7.3484344-2.1943054-10.5400009-4.3200073
	c-2.943882-2.122345-5.4413338-4.8032837-7.3499985-7.8899994c0.5401955,5.5166779,2.2735786,10.8498993,5.0800018,15.6300049
	c1.9065857,2.7588654,4.1171188,5.2947693,6.5900002,7.5599976c4.6877899,4.2648926,10.3443184,7.3231354,16.4799995,8.9100037
	c7.5551987,1.9182434,15.5728149,0.2712402,21.7600021-4.4700012c4.3499985-3.4299927,7.2900009-8.3000031,7.3899994-13.9300079
	c0.1299973-5.8399963-2.3000031-10.4099884-6.7600021-14.1199951L53.2399979,64.2899933z M50.7799988,62.9500008
	c-0.8300018,0.8000031-1.6800003,1.579998-2.5199966,2.3599968l0,0c-3.1883774,2.9842987-7.0053406,5.2156982-11.1699982,6.5299988
	c3.3788757-3.0187531,5.4753952-7.2153778,5.8600006-11.7299995h-0.0699997V60.029995
	C45.5769577,60.8216896,48.2164764,61.7973137,50.7799988,62.9500008z"/>
<path d="M40.7900009,60.2199974c0-0.25,0-0.5,0-0.75h-0.0599976c-1.3199997-0.3899994-2.6399994-0.7799988-3.9100037-1.1800003l0,0
	h-0.0500031c-6.0932388-1.7801971-11.4444542-5.4892044-15.25-10.5699997c-3.6231384-2.2100143-6.4306068-5.5368576-8-9.4799957
	c-1.2416649-3.6238937-1.7581444-7.4566956-1.5200005-11.2799988c0.3764992-3.6240387,1.4566917-7.1397591,3.1800003-10.3499985
	c-2.1868515,1.5733566-4.2013664,3.3733444-6.0099983,5.3699951c-1.9207764,2.0974503-3.5981064,4.4054565-5,6.8799973
	c-1.4349861,3.0362244-2.5283508,6.2224197-3.2599983,9.5c-1.3553467,6.1924438-1.1768379,12.6222916,0.5200005,18.7299957
	c2.1244812,7.4987526,7.5505524,13.6205788,14.7399979,16.6300087c5.1599998,2,10.8499985,2.1299896,15.7700043-0.5800018
	C37.0699997,70.3199921,39.8000031,65.9299927,40.7900009,60.2199974z M40.6999969,57.4399986
	c-1.0999985-0.3199997-2.1900024-0.6500015-3.2900009-1l0,0c-4.2302094-1.2711487-8.1128998-3.4947205-11.3499985-6.5
	c1.2343445,0.4166336,2.5129166,0.6884613,3.8099976,0.8099976c3.2079544,0.3742447,6.4563446-0.1665726,9.3700027-1.5599976
	v-0.0899963l0,0C39.9239273,51.8418388,40.4118271,54.6288795,40.6999969,57.4399986z"/>
<path d="M38.0800018,47.3800011c0.2200012-0.1100006,0.4300003-0.2399979,0.6500015-0.3499985v-0.0699997
	c-0.3199997-1.3399963-0.6500015-2.6900024-0.9400024-4l0,0v-0.0599976
	c-1.4800034-6.8499985-0.9199982-13.1299973,1.5500031-18.5699997c0.1263046-4.2009201,1.6064835-8.2486115,4.2200012-11.5400009
	c2.5053864-2.9078407,5.5649185-5.2874756,9-7c3.3125305-1.4520721,6.8745499-2.2500496,10.4899902-2.3500061
	c-5.057663-2.3196564-10.5660934-3.4910088-16.1299973-3.4300003c-3.3453522,0.2595253-6.6501083,0.9003448-9.8499985,1.9099998
	c-6.0523605,1.9188385-11.5447197,5.2863426-16,9.8100014c-5.4295845,5.5933571-8.0074577,13.3601227-7,21.090004
	c0.6255112,5.4980164,3.7064819,10.4172745,8.3800011,13.3799973c4.9999962,3,10.170002,3.1999969,15.6000023,1.1900024
	L38.0800018,47.3800011z M40.4800034,45.8999977c-0.2699966-1.1100006-0.5400009-2.2099991-0.7799988-3.3499985v-0.0599976
	c-1.010498-4.3149643-1.010498-8.8050385,0-13.1200027c0.2470169,1.3208923,0.6533127,2.6069489,1.2099991,3.8300018
	c1.2770157,2.9525299,3.3555374,5.488327,6,7.3199997c-2.0093842,1.9506683-4.1584244,3.752121-6.4300079,5.3899994
	L40.4800034,45.8999977z"/>
</svg>
