<?xml version="1.0" encoding="utf-8"?>
<!-- Generator: Adobe Illustrator 22.1.0, SVG Export Plug-In . SVG Version: 6.00 Build 0)  -->
<svg version="1.1" id="Capa_1" xmlns="http://www.w3.org/2000/svg" xmlns:xlink="http://www.w3.org/1999/xlink" x="0px" y="0px"
	 viewBox="0 0 440.2000122 455.7000122" style="enable-background:new 0 0 440.2000122 455.7000122;" xml:space="preserve">
<style type="text/css">
	.st0{fill:#1D1D1B;}
</style>
<g>
	<path class="st0" d="M430.4000244,109.5999756l-0.1000366-0.5c-10.5999756-43-58.5999756-89.0999756-102.5999756-98.6999512
		l-0.5-0.1000366C256-3.2999878,183.7000122-3.2999878,112.5,10.2999878l-0.5,0.1000366
		C67.9000244,19.9000244,19.9000244,66,9.2999878,109l-0.0999756,0.5C-4,169.5999756-4,230.5,9.2000122,290.5l0.0999756,0.5
		c10.2000122,41.2000122,54.6000366,85.2000122,97,97.2999878v48c0,17.3999634,21.2000122,25.8999634,33.2000122,13.3999634
		l48.6000366-50.5999756c10.5,0.5999756,21.0999756,0.8999634,31.6999512,0.8999634
		c35.9000244,0,71.7000122-3.3999634,107.3000488-10.2000122l0.5-0.0999756c44-9.6000366,92-55.7000122,102.5999756-98.7000122
		l0.1000366-0.5C443.5,230.5,443.5,169.5999756,430.4000244,109.5999756z M391.9000244,281.8999634
		C384.7999878,310,348.4000244,344.7999878,319.5,351.2999878C281.6000366,358.5,243.5,361.5999756,205.2999878,360.5
		c-0.7999878,0-1.5,0.2999878-2,0.7999878c-5.3999634,5.5999756-35.5,36.5-35.5,36.5L130,436.5999756
		c-2.7999878,2.8999634-7.5999756,0.8999634-7.5999756-3.1000366v-79.5c0-1.2999878-0.9000244-2.3999634-2.2000122-2.7000122
		c-28.9000244-6.3999634-65.2999878-41.2999878-72.4000244-69.3999634C36,227.5999756,36,172.5999756,47.7999878,118.2999268
		c7.1000366-28.0999756,43.5-62.8999634,72.4000244-69.3999634c66.0999756-12.6000366,133.2000122-12.6000366,199.2999878,0
		c28.9000244,6.3999634,65.2999878,41.2999878,72.4000244,69.3999634
		C403.7000122,172.5999756,403.7000122,227.5999756,391.9000244,281.8999634z"/>
	<path class="st0" d="M316.2000122,267.7999878c-5.8999634-5.2000122-12.2000122-9.5999756-18.5-14.0999756
		c-6.3999634-4.6000366-12.8999634-9.2000122-19.5999756-13.4000244s-14.5999756-4.2000122-20.7999878,0.9000244
		c-6.4000244,5.1999512-9.3000488,15.0999756-18.4000244,16.1999512C233.5,258,228.7999878,255.7999878,224.1000366,253.7999878
		c-29.4000244-12.2000122-47.3000488-34.9000244-57.9000244-64.1000366
		c-1.2999878-3.7999878-1.2000122-7.8999634,0.8999634-11.3999634c1.2000122-1.9000244,2.8000488-3.2999878,4.5-4.7000122
		C173.5,172,175.3999634,170.2999878,177.5,168.8999634c8.5999756-5.7999878,10-16.2999878,5.2000122-24.8999634
		C174.8999634,130,165.3999634,117.4000244,155,105.2999878c-4.7999878-5.5-11.2999878-7.3999634-17.9000244-4.2000122
		c-8.5,4-16.2999878,9.5-22.2999878,16.7000122c-6.3999634,7.7000122-12.5999756,18.1000366-8.3999634,28.2999878
		c4.5,11.1000366,9,22.3000488,14.2999878,33.1000366C131.9000244,202,145.1000366,223.5,162,242.5
		c29.7999878,33.4000244,67.2999878,55.2999878,108.1000366,72.2000122c3.8999634,1.5999756,8.2000122,2.5,12.5999756,3.8999634
		c3.9000244-1.2000122,8-1.7999878,11.5-3.7000122c12.2000122-6.5,20.6000366-16.7000122,26.4000244-29
		C323.7000122,279.1999512,321.8000488,272.6999512,316.2000122,267.7999878z"/>
	<path class="st0" d="M326.5,176.5999756c-8.8999634-49.5999756-48.2000122-83.8999634-97.2999878-89
		C226.0999756,87.2999878,223,87.0999756,219.9000244,87c-1.1000366,0-2.1000366,0-3.1000366-0.0999756
		c-3.7999878,0.2000122-7.0999756,3.2999878-6.4000244,7.2999878c0.8000488,4.7999878,5.8000488,5,9.6000366,5.4000244
		c6.0999756,0.6999512,12.0999756,0.8999634,18.0999756,2c39.6000366,7.0999756,71.3000488,40,76.8000488,79.6999512
		c1.0999756,7.5,1.5,15.1000366,2,22.7000122c0.2999878,3.9000244,2.2000122,7.5,6.5,7.4000244
		c4.0999756,0,6.2999878-3.7000122,6-7.5C328.7000122,194.7999878,328.1000366,185.5999756,326.5,176.5999756z"/>
	<path class="st0" d="M288.5,191.2000122c0,1.7999878,0,3.5999756,0.6000366,5.2000122
		c1.8999634,5.3999634,10,4.7999878,11.3999634-0.6000366c0.4000244-1.5,0.4000244-3,0.5-3.7000122
		c-0.2999878-3.5999756-0.3999634-6.3999634-0.5-9.1999512c-0.0999756-1.2000122-0.2999878-2.2999878-0.5-3.4000244
		c-3.7000122-24.6999512-16.3999634-43.1999512-38.5-54.8999634c-10.9000244-5.7999878-22.7999878-8.4000244-35-9.1000366
		c-3.7000122-0.1999512-6.2000122,2.3000488-6.4000244,5.7000122c-0.1999512,3.6000366,1.8000488,6,5.5,6.5
		c3.1000366,0.4000244,6.2000122,0.7000122,9.2000122,1.2000122c7,1.2000122,13.9000244,3.0999756,20.2000122,6.2000122
		c10.5,5.0999756,19.4000244,13.5999756,25.2999878,23.6999512C286,168.5999756,288.5,179.9000244,288.5,191.2000122z"/>
	<path class="st0" d="M272.6000366,186.2999878c0.3999634-1.7000122,0.2000122-3.5,0.0999756-5.2000122
		c-2.0999756-24.2999878-16.8999634-35-37.5999756-36.5c-3.2999878-0.1999512-6.2999878,2.2000122-6.7999878,5.2000122
		c-0.5,3.4000244,1.5,6.2000122,5,7.1000366c3.1999512,0.7999878,6.5999756,0.5999756,9.8999634,1.5
		c2.5999756,0.7999878,5,1.8999634,7.2000122,3.5c4.5999756,3.3999634,7.5,8.3999634,8.7999878,13.8999634
		c0.7000122,2.7999878,1,5.6000366,1.2999878,8.5c0.3806763,3.9016113,2.5767212,6.348938,6.6655884,6.4910889
		c-0.9551392,0.0267944-1.8867188,0.0649414,0.6343994,0.0089111c0.4978638-0.0249023,0.4686279-0.031189,0.2138672-0.0281372
		C269.9477539,190.5858154,271.9249268,189.1932983,272.6000366,186.2999878z"/>
</g>
</svg>
