<svg id="Слой_1" data-name="Слой 1" xmlns="http://www.w3.org/2000/svg" viewBox="0 0 529.69 102.93"><defs><style>.cls-1{fill:#c1202f;}.cls-2,.cls-4{fill:#ef3636;}.cls-3{fill:#fff;}.cls-4,.cls-5,.cls-6,.cls-7,.cls-8{fill-rule:evenodd;}.cls-5{fill:#f4ec43;}.cls-6{fill:#fab630;}.cls-7{fill:#f79333;}.cls-8{fill:#f37033;}</style></defs><title>logo</title><polygon class="cls-1" points="109.86 31.36 125.95 31.49 134.24 44.13 142.46 31.61 158.41 31.74 143.56 51.42 159.48 72.63 143.07 72.51 133.84 59.3 124.37 72.36 108.06 72.22 124.54 51.06 109.86 31.36"/><path class="cls-1" d="M245.19,114.57l-14.62-.11.24-30.83-11.44-.09-.09,10.88c0,5.16-.38,10.65-1,13.07s-2.15,5.72-4.5,6.84L197,114.2c3.65,0,7.67-7.78,7.73-15.47l.2-25.36,40.62.31Z" transform="translate(-36.83 -41.56)"/><polygon class="cls-1" points="219.04 32.22 258.19 32.51 258.12 41.24 233.61 41.06 233.56 47.55 256.31 47.73 256.24 56.08 233.5 55.9 233.43 63.95 258.66 64.14 258.59 73.4 218.73 73.09 219.04 32.22"/><path class="cls-1" d="M318.84,90l7.81.05q10.72.08,15.91,3.42c3.45,2.2,5.13,5.61,5.11,10.22a9.64,9.64,0,0,1-4.82,8.62q-4.79,3-13.68,2.89l-25.1-.19.32-40.89,39.82.31-.06,8.29-25.24-.21L318.84,90Zm-.12,16.34,7.47,0q6.87.05,6.9-4.22,0-3.79-6.84-3.83l-7.47-.06Z" transform="translate(-36.83 -41.56)"/><polygon class="cls-1" points="363.86 74.22 349.28 74.11 349.52 43.28 333.46 43.15 333.22 73.98 318.63 73.86 318.95 32.99 364.18 33.34 363.86 74.22"/><path class="cls-1" d="M410.68,75l24.3.18c5.28.05,9.24,1.17,11.85,3.37s3.91,5.3,3.88,9.31a11.73,11.73,0,0,1-4.38,9.64c-2.88,2.31-7.28,3.43-13.17,3.39l-8-.07L425,116l-14.68-.11L410.68,75Zm14.55,17.54,3.57,0c2.82,0,4.8-.39,5.95-1.22a3.91,3.91,0,0,0,1.73-3.24A4.24,4.24,0,0,0,435,84.81c-1-.89-2.83-1.36-5.57-1.38l-4.16,0Z" transform="translate(-36.83 -41.56)"/><path class="cls-1" d="M456.45,95.79q.08-10,6.57-15.52t18-5.44q11.81.1,18.16,5.62t6.28,15.41q-.07,7.17-2.89,11.72a18.77,18.77,0,0,1-8.13,7.07,30,30,0,0,1-13.17,2.46,34.55,34.55,0,0,1-13.22-2.3,19.21,19.21,0,0,1-8.45-7,20.67,20.67,0,0,1-3.17-12Zm14.62.17q0,6.19,2.58,8.93a11.23,11.23,0,0,0,14.54.17q2.6-2.63,2.67-9.5,0-5.77-2.64-8.45a10,10,0,0,0-7.28-2.72A9.57,9.57,0,0,0,473.82,87Q471.12,89.72,471.07,96Z" transform="translate(-36.83 -41.56)"/><polygon class="cls-1" points="476.5 34.21 495.72 34.37 502.95 59.29 510.54 34.48 529.69 34.62 529.37 75.51 517.45 75.42 517.69 44.25 508.18 75.35 497.39 75.26 488.39 44.02 488.15 75.18 476.19 75.09 476.5 34.21"/><polygon class="cls-2" points="109.86 31.36 125.95 31.49 134.24 44.13 142.46 31.61 158.41 31.74 143.56 51.42 159.48 72.63 143.07 72.51 133.84 59.3 124.37 72.36 108.06 72.22 124.54 51.06 109.86 31.36"/><path class="cls-2" d="M245.19,114.57l-14.62-.11.24-30.83-11.44-.09-.09,10.88c0,5.16-.38,10.65-1,13.07s-2.15,5.72-4.5,6.84L197,114.2c3.65,0,7.67-7.78,7.73-15.47l.2-25.36,40.62.31Z" transform="translate(-36.83 -41.56)"/><polygon class="cls-2" points="219.04 32.22 258.19 32.51 258.12 41.24 233.61 41.06 233.56 47.55 256.31 47.73 256.24 56.08 233.5 55.9 233.43 63.95 258.66 64.14 258.59 73.4 218.73 73.09 219.04 32.22"/><path class="cls-2" d="M318.84,90l7.81.05q10.72.08,15.91,3.42c3.45,2.2,5.13,5.61,5.11,10.22a9.64,9.64,0,0,1-4.82,8.62q-4.79,3-13.68,2.89l-25.1-.19.32-40.89,39.82.31-.06,8.29-25.24-.21L318.84,90Zm-.12,16.34,7.47,0q6.87.05,6.9-4.22,0-3.79-6.84-3.83l-7.47-.06Z" transform="translate(-36.83 -41.56)"/><polygon class="cls-2" points="363.86 74.22 349.28 74.11 349.52 43.28 333.46 43.15 333.22 73.98 318.63 73.86 318.95 32.99 364.18 33.34 363.86 74.22"/><path class="cls-2" d="M410.68,75l24.3.18c5.28.05,9.24,1.17,11.85,3.37s3.91,5.3,3.88,9.31a11.73,11.73,0,0,1-4.38,9.64c-2.88,2.31-7.28,3.43-13.17,3.39l-8-.07L425,116l-14.68-.11L410.68,75Zm14.55,17.54,3.57,0c2.82,0,4.8-.39,5.95-1.22a3.91,3.91,0,0,0,1.73-3.24A4.24,4.24,0,0,0,435,84.81c-1-.89-2.83-1.36-5.57-1.38l-4.16,0Z" transform="translate(-36.83 -41.56)"/><path class="cls-2" d="M456.45,95.79q.08-10,6.57-15.52t18-5.44q11.81.1,18.16,5.62t6.28,15.41q-.07,7.17-2.89,11.72a18.77,18.77,0,0,1-8.13,7.07,30,30,0,0,1-13.17,2.46,34.55,34.55,0,0,1-13.22-2.3,19.21,19.21,0,0,1-8.45-7,20.67,20.67,0,0,1-3.17-12Zm14.62.17q0,6.19,2.58,8.93a11.23,11.23,0,0,0,14.54.17q2.6-2.63,2.67-9.5,0-5.77-2.64-8.45a10,10,0,0,0-7.28-2.72A9.57,9.57,0,0,0,473.82,87Q471.12,89.72,471.07,96Z" transform="translate(-36.83 -41.56)"/><polygon class="cls-2" points="476.5 34.21 495.72 34.37 502.95 59.29 510.54 34.48 529.69 34.62 529.37 75.51 517.45 75.42 517.69 44.25 508.18 75.35 497.39 75.26 488.39 44.02 488.15 75.18 476.19 75.09 476.5 34.21"/><path class="cls-3" d="M84.67,80.19l.64.37,0,0c1-.95,2-1.9,3-2.79h0l0,0a29.14,29.14,0,0,1,16.89-8,19.53,19.53,0,0,1,12.11-2.11A29.16,29.16,0,0,1,127.93,72a28.14,28.14,0,0,1,7.27,7.78,39.14,39.14,0,0,0-1.6-7.81,38.57,38.57,0,0,0-3.47-7.77,45.7,45.7,0,0,0-6.58-7.57,39,39,0,0,0-16.47-8.91A25.53,25.53,0,0,0,85.3,52.13a18.35,18.35,0,0,0-7.4,13.95c-.12,5.84,2.31,10.4,6.76,14.12Zm2.48,1.31,2.51-2.33.05,0a29,29,0,0,1,11.39-6.61,17.37,17.37,0,0,0-2.5,2.69,14.39,14.39,0,0,0-1.15,1.73,16.38,16.38,0,0,0-2.37,7.29v.15h0A55.88,55.88,0,0,1,87.14,81.51Z" transform="translate(-36.83 -41.56)"/><path class="cls-3" d="M97.14,84.27c0,.25,0,.5,0,.74l0,0c1.33.39,2.66.78,3.92,1.19h.06c6.65,2.13,11.78,5.73,15.27,10.57a19.55,19.55,0,0,1,8,9.51,28.89,28.89,0,0,1,1.52,11.29,27.7,27.7,0,0,1-3.07,10.15,38.55,38.55,0,0,0,5.9-5.24,39.12,39.12,0,0,0,5-6.88,45.46,45.46,0,0,0,3.26-9.5,39,39,0,0,0-.52-18.73,25.5,25.5,0,0,0-14.76-16.62,18.32,18.32,0,0,0-15.77.56c-5.11,2.81-7.86,7.21-8.84,12.93Zm.09,2.81c1.09.32,2.18.65,3.28,1h.06a29.14,29.14,0,0,1,11.36,6.54,16.43,16.43,0,0,0-3.81-.82c-.19,0-.36,0-.55-.06-.42,0-.83,0-1.24,0a15.77,15.77,0,0,0-7.64,1.7A57.8,57.8,0,0,1,97.22,87.08Z" transform="translate(-36.83 -41.56)"/><path class="cls-3" d="M99.83,97.09l-.65.38v.06c.32,1.33.65,2.67.93,4h0l0,.05A29.22,29.22,0,0,1,98.67,120V120a19.54,19.54,0,0,1-4.24,11.69,29.11,29.11,0,0,1-9,7A27.78,27.78,0,0,1,75,141.11a37.81,37.81,0,0,0,16,3.38,44.12,44.12,0,0,0,9.84-1.92,39,39,0,0,0,16-9.81,25.56,25.56,0,0,0,7-21.09c-.8-5.48-3.56-10.46-8.37-13.38-5-3-10.17-3.2-15.62-1.2Zm-2.38,1.48c.27,1.11.53,2.21.78,3.36v0a28.91,28.91,0,0,1,.07,13,16.93,16.93,0,0,0-1.17-3.6,17.16,17.16,0,0,0-6-7.34l0,0L91,104A61.15,61.15,0,0,1,97.44,98.57Z" transform="translate(-36.83 -41.56)"/><path class="cls-3" d="M90.07,105.85l-.64-.38,0,0c-1,1-2,1.91-3,2.79h0l0,0a29.16,29.16,0,0,1-16.63,7.91l-.06,0a19.55,19.55,0,0,1-12.25,2.17,28.87,28.87,0,0,1-10.54-4.32,27.66,27.66,0,0,1-7.35-7.89,38.23,38.23,0,0,0,5.08,15.63,44.77,44.77,0,0,0,6.59,7.56,39,39,0,0,0,16.48,8.91,25.47,25.47,0,0,0,21.76-4.47c4.35-3.43,7.29-8.3,7.39-13.93.13-5.84-2.3-10.41-6.76-14.12Zm-2.46-1.34c-.83.8-1.68,1.58-2.52,2.36l0,0a29.21,29.21,0,0,1-11.17,6.53,17.75,17.75,0,0,0,5.86-11.73h-.07v-.08A61.51,61.51,0,0,1,87.61,104.51Z" transform="translate(-36.83 -41.56)"/><path class="cls-3" d="M77.62,101.78c0-.25,0-.5,0-.75l-.06,0c-1.32-.39-2.64-.78-3.91-1.18h0l-.05,0A29.33,29.33,0,0,1,58.35,89.28a19.59,19.59,0,0,1-8-9.48,29.2,29.2,0,0,1-1.52-11.28,28,28,0,0,1,3.18-10.35A38.25,38.25,0,0,0,46,63.54a37.71,37.71,0,0,0-5,6.88,45.36,45.36,0,0,0-3.26,9.5,38.9,38.9,0,0,0,.52,18.73A25.59,25.59,0,0,0,53,115.28c5.16,2,10.85,2.13,15.77-.58,5.13-2.82,7.86-7.21,8.85-12.92ZM77.53,99c-1.1-.32-2.19-.65-3.29-1l0,0A28.91,28.91,0,0,1,62.89,91.5a16.82,16.82,0,0,0,3.81.81,17.12,17.12,0,0,0,9.37-1.56l0-.09h0A59.55,59.55,0,0,1,77.53,99Z" transform="translate(-36.83 -41.56)"/><path class="cls-3" d="M74.91,88.94c.22-.11.43-.24.65-.35v-.07c-.32-1.34-.65-2.69-.94-4h0v-.06c-1.48-6.85-.92-13.13,1.55-18.57a19.5,19.5,0,0,1,4.22-11.54,28.9,28.9,0,0,1,9-7A28.06,28.06,0,0,1,99.88,45a37.7,37.7,0,0,0-16.13-3.43,44.06,44.06,0,0,0-9.85,1.91,39,39,0,0,0-16,9.81,25.54,25.54,0,0,0-7,21.09,18.29,18.29,0,0,0,8.38,13.38c5,3,10.17,3.2,15.6,1.19Zm2.4-1.48c-.27-1.11-.54-2.21-.78-3.35v-.06a28.77,28.77,0,0,1,0-13.12,16.62,16.62,0,0,0,1.21,3.83,17.22,17.22,0,0,0,6,7.32A57.57,57.57,0,0,1,77.31,87.47Z" transform="translate(-36.83 -41.56)"/><path class="cls-4" d="M84.67,80.19l.64.37,0,0c1-.95,2-1.9,3-2.79h0l0,0a29.14,29.14,0,0,1,16.89-8,19.53,19.53,0,0,1,12.11-2.11A29.16,29.16,0,0,1,127.93,72a28.14,28.14,0,0,1,7.27,7.78,39.14,39.14,0,0,0-1.6-7.81,38.57,38.57,0,0,0-3.47-7.77,45.7,45.7,0,0,0-6.58-7.57,39,39,0,0,0-16.47-8.91A25.53,25.53,0,0,0,85.3,52.13a18.35,18.35,0,0,0-7.4,13.95c-.12,5.84,2.31,10.4,6.76,14.12Zm2.48,1.31,2.51-2.33.05,0a29,29,0,0,1,11.39-6.61,17.37,17.37,0,0,0-2.5,2.69,14.39,14.39,0,0,0-1.15,1.73,16.38,16.38,0,0,0-2.37,7.29v.15h0A55.88,55.88,0,0,1,87.14,81.51Z" transform="translate(-36.83 -41.56)"/><path class="cls-4" d="M97.14,84.27c0,.25,0,.5,0,.74l0,0c1.33.39,2.66.78,3.92,1.19h.06c6.65,2.13,11.78,5.73,15.27,10.57a19.55,19.55,0,0,1,8,9.51,28.89,28.89,0,0,1,1.52,11.29,27.7,27.7,0,0,1-3.07,10.15,38.55,38.55,0,0,0,5.9-5.24,39.12,39.12,0,0,0,5-6.88,45.46,45.46,0,0,0,3.26-9.5,39,39,0,0,0-.52-18.73,25.5,25.5,0,0,0-14.76-16.62,18.32,18.32,0,0,0-15.77.56c-5.11,2.81-7.86,7.21-8.84,12.93Zm.09,2.81c1.09.32,2.18.65,3.28,1h.06a29.14,29.14,0,0,1,11.36,6.54,16.43,16.43,0,0,0-3.81-.82c-.19,0-.36,0-.55-.06-.42,0-.83,0-1.24,0a15.77,15.77,0,0,0-7.64,1.7A57.8,57.8,0,0,1,97.22,87.08Z" transform="translate(-36.83 -41.56)"/><path class="cls-5" d="M99.83,97.09l-.65.38v.06c.32,1.33.65,2.67.93,4h0l0,.05A29.22,29.22,0,0,1,98.67,120V120a19.54,19.54,0,0,1-4.24,11.69,29.11,29.11,0,0,1-9,7A27.78,27.78,0,0,1,75,141.11a37.81,37.81,0,0,0,16,3.38,44.12,44.12,0,0,0,9.84-1.92,39,39,0,0,0,16-9.81,25.56,25.56,0,0,0,7-21.09c-.8-5.48-3.56-10.46-8.37-13.38-5-3-10.17-3.2-15.62-1.2Zm-2.38,1.48c.27,1.11.53,2.21.78,3.36v0a28.91,28.91,0,0,1,.07,13,16.93,16.93,0,0,0-1.17-3.6,17.16,17.16,0,0,0-6-7.34l0,0L91,104A61.15,61.15,0,0,1,97.44,98.57Z" transform="translate(-36.83 -41.56)"/><path class="cls-6" d="M90.07,105.85l-.64-.38,0,0c-1,1-2,1.91-3,2.79h0l0,0a29.16,29.16,0,0,1-16.63,7.91l-.06,0a19.55,19.55,0,0,1-12.25,2.17,28.87,28.87,0,0,1-10.54-4.32,27.66,27.66,0,0,1-7.35-7.89,38.23,38.23,0,0,0,5.08,15.63,44.77,44.77,0,0,0,6.59,7.56,39,39,0,0,0,16.48,8.91,25.47,25.47,0,0,0,21.76-4.47c4.35-3.43,7.29-8.3,7.39-13.93.13-5.84-2.3-10.41-6.76-14.12Zm-2.46-1.34c-.83.8-1.68,1.58-2.52,2.36l0,0a29.21,29.21,0,0,1-11.17,6.53,17.75,17.75,0,0,0,5.86-11.73h-.07v-.08A61.51,61.51,0,0,1,87.61,104.51Z" transform="translate(-36.83 -41.56)"/><path class="cls-7" d="M77.62,101.78c0-.25,0-.5,0-.75l-.06,0c-1.32-.39-2.64-.78-3.91-1.18h0l-.05,0A29.33,29.33,0,0,1,58.35,89.28a19.59,19.59,0,0,1-8-9.48,29.2,29.2,0,0,1-1.52-11.28,28,28,0,0,1,3.18-10.35A38.25,38.25,0,0,0,46,63.54a37.71,37.71,0,0,0-5,6.88,45.36,45.36,0,0,0-3.26,9.5,38.9,38.9,0,0,0,.52,18.73A25.59,25.59,0,0,0,53,115.28c5.16,2,10.85,2.13,15.77-.58,5.13-2.82,7.86-7.21,8.85-12.92ZM77.53,99c-1.1-.32-2.19-.65-3.29-1l0,0A28.91,28.91,0,0,1,62.89,91.5a16.82,16.82,0,0,0,3.81.81,17.12,17.12,0,0,0,9.37-1.56l0-.09h0A59.55,59.55,0,0,1,77.53,99Z" transform="translate(-36.83 -41.56)"/><path class="cls-8" d="M74.91,88.94c.22-.11.43-.24.65-.35v-.07c-.32-1.34-.65-2.69-.94-4h0v-.06c-1.48-6.85-.92-13.13,1.55-18.57a19.5,19.5,0,0,1,4.22-11.54,28.9,28.9,0,0,1,9-7A28.06,28.06,0,0,1,99.88,45a37.7,37.7,0,0,0-16.13-3.43,44.06,44.06,0,0,0-9.85,1.91,39,39,0,0,0-16,9.81,25.54,25.54,0,0,0-7,21.09,18.29,18.29,0,0,0,8.38,13.38c5,3,10.17,3.2,15.6,1.19Zm2.4-1.48c-.27-1.11-.54-2.21-.78-3.35v-.06a28.77,28.77,0,0,1,0-13.12,16.62,16.62,0,0,0,1.21,3.83,17.22,17.22,0,0,0,6,7.32A57.57,57.57,0,0,1,77.31,87.47Z" transform="translate(-36.83 -41.56)"/></svg>